<?xml version="1.0" encoding="UTF-8"?>
<svg xmlns="http://www.w3.org/2000/svg" xmlns:xlink="http://www.w3.org/1999/xlink" width="150px" height="42px" viewBox="0 0 150 42" version="1.1">
<defs>
<clipPath id="clip1">
  <path d="M 8 3 L 63 3 L 63 5 L 8 5 Z M 8 3 "/>
</clipPath>
<clipPath id="clip2">
  <path d="M 8.949219 4.445312 C 8.996094 4.453125 9.089844 4.457031 9.183594 4.464844 C 9.277344 4.472656 9.363281 4.476562 9.453125 4.480469 C 9.542969 4.488281 9.628906 4.492188 9.90625 4.503906 C 10.179688 4.515625 10.617188 4.53125 11.011719 4.542969 C 11.40625 4.554688 11.761719 4.5625 12.078125 4.570312 C 12.390625 4.578125 12.667969 4.585938 12.953125 4.589844 C 13.238281 4.597656 13.585938 4.605469 13.988281 4.613281 C 14.394531 4.621094 14.851562 4.628906 15.363281 4.640625 C 15.875 4.648438 16.4375 4.65625 17.09375 4.667969 C 17.746094 4.679688 18.613281 4.691406 19.71875 4.703125 C 20.820312 4.71875 22.164062 4.734375 23.742188 4.75 C 25.320312 4.765625 27.140625 4.785156 28.710938 4.792969 C 30.28125 4.804688 31.425781 4.804688 32.570312 4.808594 C 33.710938 4.808594 34.851562 4.8125 35.988281 4.785156 C 37.121094 4.761719 38.253906 4.746094 39.367188 4.730469 C 40.484375 4.710938 41.574219 4.691406 42.6875 4.671875 C 43.796875 4.652344 44.929688 4.628906 46.078125 4.609375 C 47.226562 4.589844 48.398438 4.570312 49.40625 4.550781 C 50.417969 4.535156 51.390625 4.515625 52.566406 4.492188 C 53.742188 4.472656 55.117188 4.441406 56.699219 4.390625 C 58.28125 4.34375 60.0625 4.253906 61.5 4.1875 C 62.941406 4.117188 62.941406 4.117188 61.980469 4.117188 C 61.980469 4.117188 60.0625 3.984375 58.34375 3.917969 C 56.625 3.847656 55.113281 3.8125 53.800781 3.789062 C 52.488281 3.765625 51.375 3.753906 50.46875 3.742188 C 49.558594 3.734375 48.375 3.722656 47.207031 3.714844 C 46.039062 3.707031 44.890625 3.707031 43.761719 3.703125 C 42.632812 3.699219 41.523438 3.699219 40.4375 3.699219 C 39.351562 3.699219 38.226562 3.695312 37.089844 3.691406 C 35.953125 3.6875 34.8125 3.664062 33.671875 3.679688 C 32.527344 3.695312 31.382812 3.714844 30.238281 3.730469 C 29.09375 3.75 27.125 3.777344 25.386719 3.804688 C 23.648438 3.828125 22.148438 3.851562 20.882812 3.875 C 19.621094 3.902344 18.59375 3.921875 17.804688 3.941406 C 17.015625 3.960938 16.414062 3.976562 15.867188 3.992188 C 15.316406 4.007812 14.824219 4.027344 14.382812 4.042969 C 13.941406 4.058594 13.554688 4.074219 13.21875 4.089844 C 12.886719 4.105469 12.632812 4.117188 12.34375 4.132812 C 12.050781 4.148438 11.71875 4.167969 11.351562 4.191406 C 10.984375 4.214844 10.582031 4.242188 10.136719 4.28125 C 9.695312 4.320312 9.617188 4.324219 9.53125 4.332031 C 9.445312 4.339844 9.359375 4.347656 9.269531 4.355469 C 9.179688 4.363281 9.089844 4.367188 9.042969 4.375 C 8.949219 4.382812 8.996094 4.445312 8.949219 4.445312 "/>
</clipPath>
</defs>
<g id="surface1">
<g clip-path="url(#clip1)" clip-rule="nonzero">
<g clip-path="url(#clip2)" clip-rule="evenodd">
<path style=" stroke:none;fill-rule:nonzero;fill:rgb(0%,0%,0%);fill-opacity:1;" d="M 8.902344 3.644531 L 62.988281 3.644531 L 62.988281 4.832031 L 8.902344 4.832031 "/>
</g>
</g>
</g>
</svg>
