<?xml version="1.0" encoding="UTF-8"?>
<svg xmlns="http://www.w3.org/2000/svg" xmlns:xlink="http://www.w3.org/1999/xlink" width="192px" height="40px" viewBox="0 0 191 40" version="1.1">
<g id="surface1">
<path style=" stroke:none;fill-rule:nonzero;fill:rgb(0%,0%,0%);fill-opacity:1;" d="M 168.484375 11.425781 C 145.050781 13.386719 117.257812 16.109375 96.164062 18.542969 C 89.214844 19.335938 82.332031 20.0625 80.847656 20.160156 C 79.363281 20.253906 74.402344 20.09375 69.792969 19.808594 C 53.71875 18.859375 46.488281 18.609375 33 18.511719 C 25.546875 18.480469 18.441406 18.355469 17.210938 18.226562 C 15.347656 18.039062 14.527344 18.101562 11.90625 18.796875 C 8.621094 19.683594 6.316406 20.664062 6.316406 21.234375 C 6.316406 21.457031 7.640625 21.488281 10.675781 21.328125 C 17.652344 20.949219 38.277344 21.011719 52.328125 21.488281 C 59.496094 21.742188 65.308594 21.992188 65.246094 22.058594 C 65.183594 22.121094 60.699219 22.722656 55.234375 23.449219 C 49.769531 24.144531 40.550781 25.347656 34.738281 26.140625 C 25.042969 27.4375 21.160156 27.941406 14.527344 28.734375 C 12.570312 28.988281 12.410156 29.050781 13.609375 29.082031 C 14.433594 29.082031 17.117188 28.890625 19.613281 28.640625 C 24.285156 28.164062 31.515625 27.722656 66.949219 25.824219 C 102.480469 23.890625 104.121094 23.859375 115.113281 24.652344 C 139.207031 26.425781 151.746094 28.257812 169.082031 32.625 C 171.136719 33.132812 172.871094 33.511719 172.96875 33.449219 C 173.03125 33.355469 172.398438 33.132812 171.578125 32.941406 C 170.757812 32.722656 166.933594 31.707031 163.113281 30.695312 C 151.617188 27.59375 141.828125 25.855469 126.953125 24.242188 L 120.164062 23.511719 L 124.429688 23.324219 C 126.765625 23.195312 134.722656 22.878906 142.113281 22.625 C 149.503906 22.339844 161.660156 21.867188 169.113281 21.519531 C 176.597656 21.171875 182.851562 20.886719 183.074219 20.886719 C 183.324219 20.886719 183.167969 20.441406 182.695312 19.777344 C 182.285156 19.113281 181.621094 17.183594 181.148438 15.160156 C 180.324219 11.644531 179.851562 10.410156 179.441406 10.476562 C 179.316406 10.507812 174.386719 10.917969 168.484375 11.425781 Z M 168.484375 11.425781 "/>
</g>
</svg>
